<?xml version="1.0" encoding="UTF-8" standalone="no"?>
<!DOCTYPE svg PUBLIC "-//W3C//DTD SVG 20010904//EN"
              "http://www.w3.org/TR/2001/REC-SVG-20010904/DTD/svg10.dtd">

<svg xmlns="http://www.w3.org/2000/svg"
     width="1.92222in" height="0.633333in"
     viewBox="0 0 173 57">
  <path id="Selection #1"
        fill="black" stroke="black" stroke-width="1"
        d="M 65.00,0.00
           C 66.05,3.88 63.90,9.10 62.85,13.00
             60.67,21.04 54.26,39.72 55.00,47.00
             55.00,47.00 64.00,40.00 64.00,40.00
             62.88,44.50 60.59,48.51 56.00,50.26
             53.29,51.30 49.32,51.40 48.60,47.87
             48.17,45.76 49.58,40.25 50.13,38.00
             50.13,38.00 56.12,16.00 56.12,16.00
             56.70,13.78 58.47,8.11 58.10,6.13
             57.76,4.33 55.99,2.56 55.00,1.00
             55.00,1.00 65.00,0.00 65.00,0.00 Z
           M 106.00,4.00
           C 112.39,1.15 115.17,5.73 118.00,11.00
             112.35,9.94 109.63,8.53 106.00,4.00 Z
           M 159.00,10.00
           C 163.89,6.32 166.58,1.92 173.00,3.00
             170.57,7.59 164.28,11.68 159.00,10.00 Z
           M 11.00,5.00
           C 11.00,5.00 45.00,4.00 45.00,4.00
             45.00,4.00 45.00,16.00 45.00,16.00
             40.15,14.13 41.50,11.45 37.79,8.74
             34.55,6.37 27.99,7.00 24.00,7.00
             24.00,7.00 20.00,25.00 20.00,25.00
             28.76,24.48 27.44,21.55 34.00,18.00
             34.00,18.00 31.00,36.00 31.00,36.00
             31.00,36.00 28.00,36.00 28.00,36.00
             27.88,32.46 27.73,28.29 23.00,28.29
             21.69,28.29 20.52,28.71 19.56,29.60
             17.03,31.94 14.41,42.83 16.64,45.69
             18.55,48.13 22.20,48.05 25.00,47.98
             27.60,47.93 29.62,47.74 32.00,46.55
             37.81,43.63 37.54,39.89 43.00,38.00
             43.00,38.00 39.00,51.00 39.00,51.00
             39.00,51.00 1.00,51.00 1.00,51.00
             1.00,51.00 7.86,43.95 7.86,43.95
             7.86,43.95 14.71,20.00 14.71,20.00
             14.71,20.00 16.31,10.14 16.31,10.14
             16.31,10.14 11.00,5.00 11.00,5.00 Z
           M 82.00,18.56
           C 90.47,17.30 95.35,22.66 94.89,31.00
             94.47,38.86 89.09,48.59 81.00,50.58
             71.36,52.96 67.01,45.63 67.84,37.00
             68.70,28.13 73.53,21.51 82.00,18.56 Z
           M 100.00,28.00
           C 103.46,19.25 112.86,14.97 113.84,22.06
             114.88,29.59 107.25,38.34 108.00,47.00
             108.00,47.00 116.00,41.00 116.00,41.00
             114.74,45.28 111.69,49.68 107.00,50.67
             104.53,51.19 102.00,50.58 101.35,47.85
             100.05,42.40 107.46,30.52 107.00,23.00
             107.00,23.00 100.00,28.00 100.00,28.00 Z
           M 131.00,18.57
           C 133.67,18.16 136.31,17.76 138.55,19.74
             141.16,22.02 140.26,25.39 137.98,25.41
             136.06,25.44 134.64,22.82 132.86,22.60
             131.29,22.41 130.31,23.61 130.16,25.08
             129.90,27.61 132.63,30.91 133.76,33.00
             137.01,38.05 138.52,43.94 133.76,48.57
             132.49,49.63 131.46,50.16 129.98,50.57
             126.53,51.54 119.82,51.31 118.74,46.96
             118.11,44.38 120.33,42.06 122.46,43.17
             124.05,43.99 124.60,47.04 126.41,47.66
             128.27,48.31 129.83,46.54 130.35,44.94
             132.38,38.64 117.68,28.68 127.23,20.51
             128.66,19.28 129.39,19.22 131.00,18.57 Z
           M 164.00,42.00
           C 160.64,53.40 146.71,53.45 143.74,45.98
             139.21,34.60 153.76,14.23 164.94,18.74
             169.74,20.67 169.36,25.37 166.57,28.91
             162.66,33.86 155.09,37.04 149.07,38.00
             149.07,38.00 149.07,42.00 149.07,42.00
             150.81,52.55 159.28,44.19 164.00,42.00 Z
           M 84.02,21.66
           C 77.21,24.36 74.50,33.15 74.09,40.00
             73.90,43.22 74.22,48.96 79.00,47.88
             84.80,46.58 88.30,35.22 88.83,30.00
             89.28,25.49 89.19,22.06 84.02,21.66 Z
           M 163.00,21.00
           C 154.95,21.93 152.06,27.78 150.00,35.00
             157.99,33.48 162.71,29.34 163.00,21.00 Z" />
</svg>
