<?xml version="1.0" standalone="no"?>
<!DOCTYPE svg PUBLIC "-//W3C//DTD SVG 20010904//EN"
 "http://www.w3.org/TR/2001/REC-SVG-20010904/DTD/svg10.dtd">
<svg version="1.0" xmlns="http://www.w3.org/2000/svg"
 width="1707.000000pt" height="1707.000000pt" viewBox="0 0 1707.000000 1707.000000"
 preserveAspectRatio="xMidYMid meet">
<metadata>
Created by potrace 1.11, written by Peter Selinger 2001-2013
</metadata>
<g transform="translate(0.000000,1707.000000) scale(0.100000,-0.100000)"
fill="#000000" stroke="none">
<path d="M9051 16428 c-24 -6 -63 -21 -85 -35 -44 -27 -159 -140 -218 -213
-255 -316 -289 -343 -457 -371 -31 -5 -67 -11 -81 -14 -21 -4 -136 -22 -270
-41 -19 -3 -42 -7 -50 -10 -26 -7 -242 -355 -358 -575 l-50 -96 75 -77 c47
-47 88 -79 108 -85 66 -18 174 19 440 151 193 96 345 192 475 298 87 72 171
97 310 94 212 -4 390 -69 630 -229 75 -50 345 -258 370 -285 45 -48 55 -51
181 -55 149 -5 153 -5 248 -50 96 -46 190 -113 272 -194 100 -100 121 -136
294 -481 174 -347 290 -551 347 -611 7 -8 26 -31 42 -52 15 -21 30 -37 32 -34
2 2 6 96 9 208 2 112 6 218 9 234 3 17 7 55 10 85 11 120 19 170 42 279 64
303 147 545 274 806 81 164 135 257 227 390 133 193 269 344 445 493 105 90
124 120 103 168 -35 83 -320 218 -510 242 -33 4 -141 7 -240 6 -164 0 -189 -3
-280 -28 -131 -36 -289 -103 -395 -168 -154 -93 -154 -93 -260 -91 -152 3
-331 46 -755 183 -179 58 -240 76 -380 115 -61 17 -73 20 -135 31 -19 4 -44 9
-55 11 -42 9 -322 10 -364 1z"/>
<path d="M12918 16255 c-114 -19 -157 -50 -303 -217 -44 -50 -233 -250 -375
-398 -158 -164 -223 -239 -288 -333 -107 -156 -235 -403 -321 -619 -38 -95
-98 -276 -104 -314 -3 -16 -13 -63 -22 -104 -23 -107 -29 -177 -29 -330 -1
-129 10 -285 19 -300 3 -4 7 -25 11 -46 8 -53 66 -205 121 -320 33 -69 51 -95
66 -98 213 -42 315 -80 438 -162 106 -71 100 -66 469 -434 173 -174 344 -337
380 -363 36 -27 72 -54 81 -61 14 -12 41 -8 175 26 88 21 168 41 179 43 11 3
29 7 40 10 21 5 147 34 180 41 70 15 120 18 285 19 201 0 273 -10 380 -53 104
-41 152 -73 279 -183 161 -141 236 -234 608 -761 283 -400 434 -558 692 -726
93 -60 146 -105 267 -226 163 -163 227 -250 312 -421 65 -132 95 -209 136
-352 43 -149 56 -252 60 -463 5 -311 -38 -404 -273 -587 -40 -32 -119 -94
-175 -139 -56 -44 -160 -120 -232 -169 -149 -102 -168 -116 -249 -195 -105
-102 -162 -221 -172 -361 -7 -92 6 -134 44 -144 53 -13 199 -2 296 22 84 21
220 72 342 128 149 68 276 132 323 162 81 52 228 203 294 303 91 137 175 334
194 455 3 22 8 43 10 47 5 8 4 429 -1 503 -2 28 -6 97 -10 155 -3 58 -8 121
-9 140 -2 19 -7 76 -10 125 -4 50 -9 119 -12 155 -3 36 -7 148 -9 250 l-3 185
-41 94 c-101 229 -236 461 -381 656 -41 55 -79 105 -85 111 -5 6 -26 30 -45
54 -91 113 -206 236 -365 389 -266 259 -313 309 -348 372 -50 92 -104 266
-123 399 -2 19 -6 49 -9 65 -13 84 -20 151 -30 270 -2 33 -7 85 -11 115 -3 30
-7 73 -9 95 -20 209 -30 281 -66 443 -36 160 -105 280 -520 904 -415 624 -536
851 -628 1173 -17 63 -42 176 -48 225 -14 106 -5 361 17 495 18 108 18 107
-15 117 -84 23 -381 82 -470 93 -27 3 -64 8 -82 10 -17 3 -64 7 -105 10 -40 3
-86 7 -103 10 -114 17 -534 24 -617 10z"/>
<path d="M4120 15926 c-3 -2 -39 -7 -80 -10 -134 -11 -184 -16 -250 -26 -92
-13 -140 -20 -175 -25 -66 -9 -246 -48 -350 -75 -155 -41 -247 -72 -427 -142
l-158 -62 -1 -116 c-1 -112 -4 -212 -13 -337 l-4 -61 66 -16 c37 -9 81 -18 97
-21 44 -7 232 -33 290 -40 28 -3 64 -8 80 -10 17 -2 53 -7 80 -10 45 -5 131
-18 210 -31 17 -3 37 -7 45 -9 8 -2 31 -7 49 -10 110 -19 309 -104 376 -161
l30 -26 -35 5 c-19 3 -107 19 -195 36 -205 39 -211 40 -270 47 -27 3 -52 7
-55 9 -34 21 -652 27 -760 7 -36 -7 -78 -15 -95 -18 -105 -19 -286 -159 -314
-243 -21 -65 3 -88 296 -279 71 -46 148 -102 173 -124 44 -39 45 -40 15 -34
-16 3 -84 15 -150 26 -66 12 -131 23 -145 26 -14 2 -70 7 -125 9 -116 5 -160
-9 -218 -69 -27 -28 -107 -170 -107 -190 0 -10 74 -46 195 -96 270 -111 456
-222 580 -347 75 -76 90 -99 58 -89 -34 9 -98 25 -123 30 -14 2 -56 11 -95 20
-38 8 -86 18 -105 22 -56 10 -460 14 -515 4 -27 -5 -68 -12 -90 -15 -49 -8
-189 -64 -270 -108 -74 -40 -97 -79 -97 -170 0 -34 2 -76 6 -92 3 -17 8 -63
11 -103 4 -60 0 -87 -22 -155 -23 -70 -27 -102 -29 -220 -3 -205 12 -265 151
-592 77 -183 119 -300 135 -380 5 -27 11 -59 13 -70 3 -11 8 -42 11 -68 4 -27
9 -56 10 -65 2 -10 6 -38 10 -63 4 -25 8 -57 11 -70 5 -34 17 -136 20 -184 2
-22 6 -58 9 -80 3 -22 8 -78 11 -125 3 -47 7 -112 10 -145 5 -55 8 -113 20
-315 17 -286 34 -418 63 -482 11 -24 49 -90 86 -148 84 -134 217 -403 291
-590 31 -80 61 -154 65 -165 44 -104 168 -517 220 -730 12 -49 42 -130 65
-180 76 -159 340 -531 465 -655 200 -200 624 -427 1095 -585 149 -51 611 -163
775 -189 19 -3 46 -8 60 -11 14 -3 50 -9 80 -14 30 -6 93 -16 140 -25 76 -13
133 -22 210 -32 14 -1 39 -5 55 -8 17 -3 48 -8 70 -11 22 -3 54 -7 70 -10 17
-3 48 -7 70 -10 22 -4 51 -8 65 -10 14 -2 48 -7 75 -11 28 -3 59 -8 70 -10 95
-18 109 -16 133 11 68 78 159 259 193 380 30 111 30 111 34 230 3 112 -18 251
-49 320 -7 17 -19 46 -26 65 -18 46 -74 144 -271 478 -189 319 -279 506 -329
681 -36 125 -44 189 -44 346 1 179 21 248 144 490 54 104 114 231 135 280 20
50 41 99 45 110 5 11 22 70 39 130 59 215 84 423 85 700 0 131 -11 389 -19
435 -2 14 -6 57 -9 97 -3 39 -8 86 -11 105 -2 18 -11 94 -20 168 -23 209 -25
220 -35 295 -28 193 -42 263 -84 435 -5 18 -51 152 -131 375 -49 139 -128 398
-139 459 -20 108 -26 152 -31 220 -3 44 -7 81 -9 83 -7 7 -411 -163 -545 -229
-278 -138 -407 -258 -488 -458 -52 -129 -73 -313 -75 -645 -1 -132 3 -203 17
-360 6 -67 28 -206 49 -310 12 -59 30 -140 32 -150 3 -11 12 -50 18 -81 5 -24
110 -431 133 -514 22 -81 63 -233 67 -250 104 -405 163 -668 180 -787 3 -24 8
-60 11 -80 29 -197 25 -365 -10 -468 -26 -78 -85 -208 -92 -201 -5 4 -8 37
-28 246 -12 127 -17 180 -21 220 -7 64 -34 252 -39 270 -2 8 -7 37 -10 64 -3
27 -7 51 -9 55 -3 4 -7 27 -11 51 -8 54 -79 365 -100 435 -8 28 -26 91 -40
140 -97 330 -385 1130 -460 1274 -17 33 -62 254 -95 466 -17 108 -23 192 -25
370 -3 250 3 310 41 425 64 190 157 319 354 491 122 106 368 279 398 279 4 0
24 11 45 25 20 14 37 24 37 21 0 -2 21 7 48 21 98 52 282 120 443 162 103 28
112 29 375 29 249 0 273 2 325 21 31 12 65 31 76 44 12 12 46 97 77 189 30 92
73 202 95 245 34 69 44 80 77 92 22 8 57 22 79 31 98 43 291 100 395 115 25 4
54 9 64 11 11 2 42 6 70 9 28 3 76 8 106 12 30 3 65 6 78 7 32 0 28 11 -25 69
-200 218 -381 361 -658 519 -114 65 -455 238 -469 238 -3 0 -33 13 -68 29
-215 98 -499 215 -553 227 -11 2 -33 7 -49 10 -16 2 -32 7 -35 9 -4 2 -40 6
-81 10 -41 4 -77 8 -80 10 -5 3 -150 14 -285 21 -124 6 -820 15 -825 10z"/>
<path d="M8863 15244 c-28 -7 -72 -25 -99 -40 -27 -15 -103 -57 -169 -94 -313
-175 -398 -210 -925 -380 -524 -169 -717 -236 -828 -286 -29 -13 -55 -24 -58
-24 -5 0 -87 -52 -94 -60 -3 -4 -16 -13 -29 -22 -13 -9 -57 -46 -97 -83 -52
-47 -71 -71 -67 -83 10 -33 36 -88 106 -227 188 -374 218 -445 232 -539 6 -40
5 -47 -6 -41 -24 14 -83 58 -94 69 -18 20 -149 122 -202 158 -88 60 -260 103
-336 84 -34 -8 -109 -87 -171 -181 -66 -98 -105 -175 -142 -280 -27 -77 -28
-89 -30 -285 -2 -113 1 -230 6 -260 5 -30 12 -68 15 -85 17 -105 68 -267 210
-670 87 -244 151 -452 170 -550 51 -263 64 -769 26 -1036 -48 -340 -100 -529
-321 -1164 -35 -102 -42 -134 -44 -210 -5 -185 44 -314 197 -522 45 -61 123
-168 174 -236 121 -165 179 -282 199 -404 2 -15 6 -37 8 -48 11 -51 20 -202
19 -320 -1 -116 -16 -230 -48 -365 -3 -14 -8 -34 -10 -45 -3 -11 -7 -29 -9
-40 -3 -11 -37 -135 -76 -275 -145 -518 -148 -538 -145 -825 1 -168 4 -198 25
-260 12 -38 26 -74 31 -79 5 -6 9 -18 9 -28 0 -10 5 -18 10 -18 6 0 10 -6 10
-13 0 -30 93 -151 195 -253 246 -247 405 -354 571 -385 90 -17 352 -13 509 7
27 3 59 6 223 19 23 2 42 0 42 -5 0 -14 -81 -66 -183 -119 -88 -46 -330 -141
-538 -212 -118 -39 -137 -52 -119 -74 14 -17 171 -122 255 -171 145 -84 338
-155 690 -254 383 -108 492 -142 625 -197 82 -34 439 -212 585 -292 103 -56
271 -141 279 -141 4 0 5 17 1 38 -3 20 -8 53 -11 72 -8 52 -12 77 -24 155 -7
39 -14 84 -16 100 -3 17 -12 71 -20 120 -9 50 -17 101 -19 115 -5 39 -26 172
-31 200 -6 36 -24 159 -29 200 -3 19 -9 64 -15 100 -8 56 -14 109 -35 290 -17
150 -24 269 -30 495 -5 181 -8 230 -19 290 -2 11 -7 40 -11 65 -16 105 -83
295 -163 460 -39 81 -185 330 -263 448 -27 40 -49 76 -49 79 0 4 -7 15 -17 25
-9 10 -21 27 -27 38 -16 30 -227 334 -284 410 -53 70 -143 149 -258 225 -188
126 -212 136 -569 236 -77 21 -183 51 -235 65 -52 14 -103 28 -112 30 -10 3
-18 9 -18 13 0 11 102 109 174 167 95 76 206 146 351 220 108 55 138 75 149
99 8 17 17 79 20 146 l6 117 -153 52 c-191 65 -548 167 -735 211 -127 30 -140
35 -120 45 24 13 141 54 168 59 8 2 33 8 55 13 66 18 265 51 340 57 39 4 81 8
95 10 14 2 63 7 110 10 47 3 105 8 130 10 25 3 70 7 100 11 30 3 58 11 62 17
12 19 46 176 59 272 19 143 16 577 -5 681 -2 12 -7 45 -11 75 -16 138 -93 469
-190 818 -57 205 -79 299 -91 391 -8 61 -7 232 1 270 3 14 8 48 11 75 8 61 69
307 119 475 53 182 102 351 110 385 22 94 24 160 6 354 -30 338 -34 754 -7
876 53 245 145 431 269 548 59 56 351 252 482 323 191 104 368 175 500 200 11
2 31 6 45 8 14 3 57 8 95 11 39 3 81 8 95 10 14 3 39 7 55 10 60 10 75 14 118
33 45 20 103 74 113 106 9 26 -7 38 -201 159 -332 206 -416 244 -576 261 -14
2 -48 -3 -76 -10z"/>
<path d="M9835 14633 c-16 -2 -91 -19 -165 -38 -141 -35 -179 -42 -295 -50
-338 -25 -499 -84 -733 -268 -235 -184 -464 -460 -501 -602 -35 -138 -47 -385
-27 -585 4 -47 10 -105 12 -130 2 -25 6 -65 8 -90 21 -184 28 -501 14 -605
-13 -95 -47 -204 -98 -312 -84 -176 -91 -203 -91 -351 0 -171 13 -246 97 -559
31 -112 57 -211 59 -221 2 -9 22 -102 45 -205 51 -234 68 -334 86 -502 28
-264 19 -769 -21 -1275 -2 -25 -7 -92 -10 -150 -4 -58 -8 -121 -10 -140 -4
-44 -17 -294 -20 -380 -3 -105 2 -109 49 -35 22 36 93 145 156 241 283 435
332 510 436 683 242 401 373 754 429 1155 12 84 13 261 2 316 -3 14 -8 54 -12
90 -3 36 -8 79 -10 95 -13 89 -20 445 -11 535 2 19 7 70 11 112 3 43 8 88 10
100 2 13 6 43 10 68 3 25 12 79 19 120 32 180 7 276 -170 634 -62 127 -119
255 -127 285 -21 82 -14 188 16 248 63 123 240 253 499 367 118 52 354 114
505 134 101 13 332 6 433 -12 125 -22 314 -68 420 -101 151 -48 225 -92 361
-219 39 -36 75 -66 79 -66 4 0 2 28 -5 63 -8 34 -16 76 -18 92 -26 160 -108
388 -213 598 -136 271 -320 521 -594 810 -94 98 -142 130 -215 142 -48 7 -367
13 -410 8z"/>
<path d="M11480 12868 c-163 -17 -389 -106 -517 -204 l-61 -47 41 -34 c66 -54
333 -320 427 -424 47 -52 87 -96 90 -99 3 -3 41 -50 86 -105 79 -99 136 -174
269 -352 56 -75 126 -143 149 -143 2 0 39 -20 82 -44 44 -23 120 -65 169 -91
193 -102 327 -191 377 -248 77 -88 133 -217 137 -316 3 -71 -13 -108 -104
-246 -126 -191 -308 -353 -525 -467 -148 -78 -398 -158 -540 -173 -129 -14
-182 -27 -293 -72 -82 -33 -287 -133 -368 -179 -35 -20 -84 -48 -109 -61 -137
-76 -569 -383 -570 -404 0 -4 26 0 58 7 76 18 238 51 282 58 19 3 71 12 115
20 44 8 112 18 150 22 39 4 84 8 100 10 146 14 543 24 589 15 l28 -6 -38 -17
c-44 -19 -278 -98 -557 -187 -233 -75 -302 -107 -447 -206 -103 -70 -347 -250
-360 -265 -3 -3 -32 -28 -65 -55 -98 -80 -293 -282 -399 -413 -54 -68 -96
-125 -94 -127 2 -3 249 117 549 266 779 388 829 412 904 424 83 13 104 17 280
60 430 104 723 204 1084 369 125 57 212 102 426 221 135 75 508 338 583 412 7
7 20 16 28 21 8 4 17 28 20 53 3 24 7 55 10 69 2 14 7 41 10 60 11 68 64 256
157 555 114 366 147 518 141 649 -5 124 -56 171 -274 250 -236 86 -330 145
-490 305 -106 106 -208 235 -330 416 -229 340 -401 534 -530 597 -89 44 -241
95 -308 104 -26 3 -49 8 -53 9 -6 4 -126 16 -189 19 -25 1 -79 -2 -120 -6z"/>
<path d="M10244 12600 c-54 -10 -124 -25 -154 -34 l-56 -16 -74 -178 c-40 -97
-81 -195 -90 -217 -93 -215 -182 -478 -225 -665 -28 -124 -34 -188 -40 -495
-5 -218 -12 -357 -20 -381 -2 -6 0 -16 4 -22 4 -7 19 1 41 22 34 32 213 222
284 301 l36 40 -5 -80 c-19 -271 -72 -505 -174 -755 -17 -41 -31 -81 -31 -87
0 -15 5 -16 90 -14 113 2 204 23 458 107 289 95 431 109 615 58 32 -8 66 -17
75 -19 9 -1 35 -8 57 -13 214 -56 550 -56 785 -1 109 25 219 63 295 101 158
80 371 248 419 331 48 83 56 264 16 370 -34 92 -128 162 -275 208 l-63 19 -88
-25 c-49 -15 -201 -64 -339 -110 -357 -119 -419 -134 -595 -141 l-115 -4 -80
75 c-126 120 -220 193 -325 257 -47 28 -145 60 -245 79 -113 22 -133 37 -160
119 -23 72 -39 327 -39 625 0 182 8 210 64 237 19 9 130 32 245 52 116 19 222
38 238 41 15 2 55 10 90 15 34 6 70 13 80 16 18 6 18 6 0 18 -21 15 -198 88
-263 109 -39 13 -61 19 -115 33 -15 3 -71 14 -151 28 -60 11 -85 10 -170 -4z"/>
<path d="M1130 12132 c-308 -183 -663 -430 -830 -576 -144 -127 -277 -260
-285 -287 -14 -42 -13 -241 1 -303 24 -104 104 -305 201 -501 65 -133 70 -178
34 -325 -38 -157 -48 -228 -46 -340 2 -105 4 -115 39 -184 44 -90 110 -155
158 -157 107 -4 231 -3 283 3 109 12 264 32 335 43 111 17 240 26 240 16 0 -3
-82 -48 -182 -99 -230 -116 -386 -198 -463 -244 -111 -67 -254 -188 -332 -281
-53 -63 -57 -90 -68 -372 -13 -325 -18 -397 -40 -485 -21 -85 -86 -435 -100
-539 -19 -136 127 -305 570 -661 44 -35 82 -67 85 -70 29 -31 153 -111 239
-155 141 -71 359 -129 556 -150 147 -15 154 -15 390 -30 50 -4 115 -8 145 -11
30 -2 80 -6 110 -9 110 -9 186 -17 210 -21 14 -2 45 -7 70 -10 108 -14 360
-87 360 -104 0 -8 -92 -50 -109 -50 -6 0 -19 -4 -29 -10 -19 -11 -157 -55
-387 -124 -82 -24 -163 -50 -180 -56 -28 -11 -29 -12 -9 -20 12 -5 48 -11 80
-15 48 -4 450 -84 504 -99 8 -3 18 -5 23 -5 48 -5 -167 -80 -288 -100 -33 -6
-73 -13 -90 -16 -54 -11 -98 -15 -245 -21 -80 -3 -148 -9 -152 -13 -9 -8 110
-243 179 -356 7 -11 16 -27 20 -35 4 -8 28 -46 55 -85 222 -327 528 -583 861
-720 98 -40 140 -48 242 -49 297 -1 467 77 599 274 96 142 232 413 410 814
192 431 277 569 501 811 77 84 82 76 -73 125 -249 78 -475 176 -707 308 -94
53 -385 225 -435 257 -132 84 -200 125 -205 125 -3 0 -11 5 -18 10 -7 6 -52
36 -102 67 -354 220 -384 249 -493 470 -43 87 -85 181 -94 208 -9 28 -31 89
-47 137 -27 76 -66 208 -117 398 -15 57 -44 154 -96 320 -44 140 -97 279 -125
325 -14 22 -51 65 -82 95 -125 120 -230 290 -291 468 -17 52 -33 101 -35 110
-2 9 -8 37 -14 62 -10 44 -17 93 -26 175 -5 46 -5 391 0 450 2 22 9 89 16 148
16 137 3 265 -46 462 -56 223 -134 434 -240 647 -50 102 -216 387 -253 436
l-18 23 -164 -99z"/>
<path d="M10652 12047 c-16 -19 -5 -105 18 -150 12 -23 47 -68 78 -101 64 -67
62 -70 -36 -87 -118 -21 -205 -93 -196 -164 8 -68 32 -102 104 -151 101 -69
193 -87 460 -87 182 -1 183 -1 203 70 33 113 28 191 -19 315 -46 120 -74 153
-178 202 -106 51 -298 128 -373 150 -39 11 -54 12 -61 3z"/>
<path d="M13745 12044 c-38 -9 -113 -31 -165 -51 -100 -37 -361 -160 -394
-185 -17 -14 -2 -21 190 -92 226 -84 367 -147 436 -194 113 -78 170 -171 173
-280 3 -82 -10 -126 -91 -317 -72 -170 -80 -203 -89 -335 -11 -169 -15 -225
-20 -250 -3 -14 -7 -43 -11 -65 -11 -78 -15 -101 -31 -160 -8 -33 -16 -64 -17
-70 -3 -14 -45 -145 -55 -170 -63 -158 -154 -349 -235 -495 -20 -36 -52 -94
-71 -131 -30 -55 -43 -69 -88 -92 -28 -14 -83 -45 -122 -67 -221 -128 -400
-196 -556 -214 -31 -4 -65 -8 -75 -10 -18 -3 -81 -12 -154 -22 -36 -5 -95 -16
-190 -35 -30 -6 -66 -13 -80 -15 -111 -21 -460 -125 -485 -144 -5 -4 -21 -11
-35 -15 -14 -4 -45 -16 -70 -27 -25 -10 -54 -23 -65 -27 -11 -5 -50 -22 -86
-39 -37 -17 -91 -40 -120 -53 -30 -12 -62 -28 -73 -35 -17 -11 -15 -13 20 -23
22 -6 66 -13 99 -17 33 -3 62 -7 65 -9 29 -18 502 -27 630 -12 200 23 447 77
640 140 80 27 282 101 315 117 11 5 77 36 146 68 151 71 317 165 419 238 186
134 324 220 454 284 212 105 456 193 456 164 0 -9 -50 -67 -201 -234 -169
-188 -283 -344 -359 -495 -46 -90 -72 -167 -130 -389 -18 -65 -36 -130 -42
-145 -6 -14 -14 -35 -18 -46 -41 -106 -114 -241 -165 -305 -55 -70 -160 -160
-225 -194 -153 -81 -391 -140 -652 -162 -101 -9 -405 -9 -508 0 -177 16 -213
23 -640 126 -516 124 -649 150 -845 166 -186 16 -423 7 -556 -21 -74 -15 -315
-91 -334 -105 -5 -4 -37 -17 -69 -29 -66 -24 -296 -138 -356 -176 -22 -14 -42
-25 -45 -25 -3 0 -40 -20 -83 -43 -42 -24 -132 -72 -199 -107 -153 -79 -167
-93 -166 -164 1 -61 17 -99 93 -220 l55 -88 195 6 c107 3 208 8 225 10 16 3
52 8 80 11 27 4 61 8 75 10 14 2 50 7 80 10 30 3 82 10 115 15 33 5 78 12 100
15 22 4 132 8 245 10 181 3 312 -7 395 -28 60 -16 152 -55 315 -132 199 -95
339 -154 420 -175 47 -13 56 -15 130 -30 25 -5 120 -8 211 -7 l166 2 114 76
c241 162 376 204 774 244 22 2 85 7 140 10 55 3 127 8 160 10 33 3 128 8 210
11 83 4 173 7 200 8 29 2 69 12 95 26 52 26 220 140 359 243 278 205 322 235
431 295 140 77 206 95 385 107 227 16 270 23 370 60 202 76 397 221 622 462
166 179 195 207 285 278 105 84 101 81 178 139 74 56 201 166 243 211 105 110
171 237 192 365 3 19 8 42 10 50 2 8 7 42 11 75 35 309 -38 525 -335 980 -187
288 -244 343 -621 600 -185 127 -295 212 -401 313 -115 109 -151 156 -210 272
-63 125 -188 315 -279 425 -42 51 -183 189 -223 218 -62 47 -157 86 -246 101
-112 19 -346 19 -436 0z"/>
<path d="M10620 9997 c-3 -3 -27 -7 -55 -10 -255 -27 -593 -192 -899 -440
-121 -97 -365 -340 -495 -492 -51 -61 -105 -123 -120 -140 -27 -31 -161 -199
-196 -245 -11 -15 -69 -92 -128 -171 -210 -278 -418 -602 -399 -621 16 -16
274 -4 346 16 235 65 622 369 986 776 47 52 96 106 110 121 14 14 40 44 59 65
149 169 322 354 431 460 201 197 336 298 637 477 104 62 199 120 212 129 l24
17 -24 9 c-22 8 -68 17 -217 41 -57 9 -264 15 -272 8z"/>
<path d="M14630 7364 c-30 -7 -86 -21 -125 -30 -95 -22 -190 -60 -251 -101
-66 -43 -176 -158 -286 -300 -48 -61 -95 -122 -105 -134 -54 -68 -148 -158
-198 -188 -107 -65 -239 -77 -374 -34 -42 13 -121 31 -176 39 -99 16 -320 21
-373 10 -15 -4 -42 -8 -59 -10 -112 -14 -389 -121 -437 -169 l-24 -24 62 -184
c57 -168 116 -381 131 -469 3 -19 8 -42 10 -50 5 -18 17 -100 32 -220 15 -122
9 -384 -12 -540 -9 -61 -44 -232 -49 -238 -9 -8 -34 56 -76 188 -92 297 -162
477 -251 650 -84 165 -207 333 -296 407 -25 21 -51 43 -57 48 -23 22 -109 67
-161 85 -57 20 -176 23 -194 5 -11 -11 0 -58 47 -206 50 -156 112 -407 127
-514 3 -22 7 -53 10 -70 2 -16 8 -52 12 -80 9 -65 10 -456 1 -519 -12 -78 -31
-156 -38 -156 -6 0 -53 199 -74 315 -17 86 -116 435 -141 490 -7 17 -23 57
-35 89 -85 237 -250 496 -428 673 -252 250 -544 413 -838 469 -194 36 -546 18
-780 -41 -53 -14 -98 -25 -100 -25 -2 0 15 -30 37 -67 151 -246 249 -517 283
-783 12 -91 18 -297 20 -700 1 -270 6 -422 13 -435 19 -36 83 -233 108 -333
21 -87 31 -133 50 -252 19 -122 25 -605 11 -900 -12 -243 -11 -259 33 -394 46
-141 97 -324 107 -381 12 -65 25 -82 -430 519 -67 87 -125 164 -131 170 -5 6
-44 52 -85 101 -113 136 -294 313 -405 396 -145 108 -273 171 -490 240 -49 16
-99 33 -110 38 -11 5 -69 25 -130 44 -242 78 -490 171 -631 238 -68 32 -205
108 -214 119 -3 3 -32 23 -64 45 -86 58 -222 196 -296 300 -130 184 -276 405
-381 575 -138 226 -248 480 -275 635 -4 22 -8 49 -10 60 -3 11 -7 52 -10 90
-9 117 -13 125 -99 191 -93 71 -268 145 -375 157 -25 3 -63 8 -85 11 -22 3
-58 8 -80 11 -22 3 -117 8 -211 12 -147 5 -178 3 -225 -12 -112 -37 -293 -220
-355 -360 -54 -124 -68 -153 -124 -265 -31 -63 -99 -187 -150 -275 -350 -606
-415 -728 -487 -915 -42 -108 -91 -252 -97 -286 -2 -10 -22 -91 -45 -179 -48
-190 -52 -210 -55 -295 -4 -117 9 -164 62 -218 26 -26 74 -60 107 -77 145 -72
224 -139 392 -335 165 -192 251 -269 360 -324 100 -50 194 -58 351 -31 48 8
105 17 127 21 22 3 43 8 48 11 4 2 37 6 74 8 93 6 138 -16 185 -86 78 -117
158 -176 313 -232 126 -45 197 -56 473 -72 227 -13 402 -37 542 -75 41 -11 82
-23 90 -27 8 -3 17 -7 20 -8 27 -6 131 -45 200 -73 186 -76 250 -103 460 -200
299 -137 515 -219 676 -257 76 -17 259 -48 479 -80 61 -8 135 -20 165 -25 30
-5 73 -12 95 -15 22 -3 47 -7 55 -10 8 -2 35 -6 60 -9 25 -3 56 -8 70 -11 14
-3 50 -9 80 -15 30 -6 66 -12 80 -15 14 -3 50 -10 80 -16 94 -18 101 -19 253
-55 406 -95 743 -218 1022 -373 166 -91 222 -116 315 -136 8 -2 58 -13 110
-25 153 -34 198 -40 325 -47 66 -3 169 -16 230 -29 129 -28 110 -23 255 -68
63 -19 129 -38 145 -41 17 -2 46 -9 65 -15 58 -18 220 -50 250 -50 26 0 29 4
40 53 22 104 30 298 17 412 -24 200 -98 383 -270 670 -79 133 -301 472 -317
485 -3 3 -25 34 -50 70 -24 36 -76 112 -115 170 -130 191 -255 407 -255 441 0
39 571 -536 702 -707 12 -16 25 -31 28 -34 3 -3 32 -39 65 -80 33 -41 63 -77
66 -80 3 -3 119 -156 257 -342 138 -185 255 -339 260 -342 4 -2 26 30 47 72
83 168 186 282 425 476 153 124 280 234 328 286 94 100 178 251 241 435 18 50
38 104 46 122 8 17 15 35 15 40 0 29 243 667 320 839 37 82 170 345 196 385
13 21 24 41 24 45 0 9 164 254 197 294 41 50 166 194 174 200 25 20 189 254
304 436 257 405 332 506 500 678 17 17 85 78 150 136 283 247 397 404 411 568
3 37 7 85 9 107 3 32 -4 53 -36 108 -21 38 -39 71 -39 73 0 10 -137 203 -179
254 -197 234 -444 385 -722 442 -131 26 -470 34 -559 12z"/>
</g>
</svg>
